<?xml version="1.0" encoding="UTF-8"?>
<svg width="2145px" height="512px" viewBox="0 0 2145 512" version="1.1" xmlns="http://www.w3.org/2000/svg" xmlns:xlink="http://www.w3.org/1999/xlink">
    <title>Aperture Logotype Horizontal White</title>
    <g id="Aperture-Logotype-Horizontal-White" stroke="none" stroke-width="1" fill="none" fill-rule="evenodd">
        <path d="M523.745769,68.6163458 C549.122824,68.6163458 572.087271,74.9159322 592.639111,87.3810712 C613.190951,99.9355661 629.453711,117.672699 641.427392,140.726505 C653.401072,163.78031 659.387913,190.497705 659.387913,220.878689 C659.387913,251.259673 653.401072,278.155779 641.427392,301.567008 C629.453711,324.978237 613.190951,343.117472 592.639111,355.984712 C572.087271,368.851952 549.122824,375.285572 523.745769,375.285572 C501.942948,375.285572 482.731445,370.81778 466.111262,361.882197 C449.491078,352.946613 435.998348,341.687778 425.633072,328.105691 L425.633072,512 L350.574179,512 L350.574179,73.4415609 L425.633072,73.4415609 L425.633072,116.332362 C435.283502,102.794953 448.59752,91.4020838 465.575127,82.2877886 C482.552733,73.1734934 501.942948,68.6163458 523.745769,68.6163458 Z M822.372939,68.6163458 C850.60938,68.6163458 875.897078,74.6925426 898.236035,86.8449362 C920.574991,98.9973298 937.910021,116.243006 950.241125,138.581965 C962.572229,160.920924 968.737781,186.566048 968.737781,215.517339 C968.737781,226.240039 968.022935,235.890469 966.593241,244.468629 L749.458585,244.468629 C751.245701,265.91403 758.751591,282.712927 771.976253,294.865321 C785.200915,307.017714 801.463676,313.093911 820.764534,313.093911 C848.643551,313.093911 868.480545,301.120229 880.275514,277.172865 L961.231892,277.172865 C952.653733,305.766732 936.212261,329.267317 911.907476,347.674619 C887.602692,366.126599 857.757846,375.285572 822.372939,375.285572 C793.779074,375.285572 768.133953,368.941308 745.437573,356.252779 C722.741193,343.564251 705.04874,325.603728 692.360212,302.371211 C679.671685,279.138694 673.327421,252.331943 673.327421,221.950959 C673.327421,191.25723 679.582329,164.271767 692.092145,140.994572 C704.60196,117.762055 722.115702,99.9355661 744.63337,87.3810712 C767.151038,74.9159322 793.064228,68.6163458 822.372939,68.6163458 Z M1998.63516,68.6163458 C2026.8716,68.6163458 2052.1593,74.6925426 2074.49825,86.8449362 C2096.83721,98.9973298 2114.17224,116.243006 2126.50334,138.581965 C2138.83445,160.920924 2145,186.566048 2145,215.517339 C2145,226.240039 2144.28515,235.890469 2142.85546,244.468629 L1925.7208,244.468629 C1927.50792,265.91403 1935.01381,282.712927 1948.23847,294.865321 C1961.46313,307.017714 1977.72589,313.093911 1997.02675,313.093911 C2024.90577,313.093911 2044.74276,301.120229 2056.53773,277.172865 L2137.49411,277.172865 C2128.91595,305.766732 2112.47448,329.267317 2088.16969,347.674619 C2063.86491,366.126599 2034.02006,375.285572 1998.63516,375.285572 C1970.04129,375.285572 1944.39617,368.941308 1921.69979,356.252779 C1899.00341,343.564251 1881.31096,325.603728 1868.62243,302.371211 C1855.9339,279.138694 1849.58964,252.331943 1849.58964,221.950959 C1849.58964,191.25723 1855.84455,164.271767 1868.35436,140.994572 C1880.86418,117.762055 1898.37792,99.9355661 1920.89559,87.3810712 C1943.41326,74.9159322 1969.32645,68.6163458 1998.63516,68.6163458 Z M74.1653354,269.751863 L212.220086,349.725336 C206.858737,354.193127 200.603829,358.21414 193.902142,361.788373 C176.924535,370.723957 157.266253,375.191749 134.927297,375.191749 C113.03512,375.191749 92.4832796,370.277178 74.1653354,360.001257 L74.1653354,360.001257 L74.1653354,269.751863 Z M1445.33495,73.4549643 L1445.33495,236.976143 C1445.33495,260.566083 1451.23243,278.705318 1463.0274,291.393846 C1474.82237,304.082375 1490.90642,310.426639 1511.27955,310.426639 C1532.0101,310.426639 1548.27286,304.082375 1560.06783,291.393846 C1571.8628,278.705318 1577.76028,260.566083 1577.76028,236.976143 L1577.76028,73.4549643 L1653.35531,73.4549643 L1653.35531,370.47376 L1577.76028,370.47376 L1577.76028,332.94431 C1568.10985,345.81155 1555.51068,355.908759 1539.96277,363.235938 C1524.41485,370.563116 1507.5266,374.226706 1489.29802,374.226706 C1466.0655,374.226706 1445.51366,369.312135 1427.6425,359.482993 C1409.77133,349.653851 1395.74247,335.178206 1385.5559,316.056057 C1375.36934,296.933908 1370.27606,274.14817 1370.27606,247.698843 L1370.27606,73.4549643 L1445.33495,73.4549643 Z M1157.45729,69.170352 L1157.45729,147.982199 L1137.62029,147.982199 C1114.03035,147.982199 1096.24854,153.52226 1084.27486,164.602384 C1072.30118,175.682508 1066.31434,194.983368 1066.31434,222.504965 L1066.31434,370.478228 L991.255449,370.478228 L991.255449,73.4594321 L1066.31434,73.4594321 L1066.31434,119.567043 C1075.96477,103.840416 1088.56394,91.5093108 1104.11186,82.5737273 C1119.65977,73.6381438 1137.44158,69.170352 1157.45729,69.170352 Z M1850.66191,69.170352 L1850.66191,147.982199 L1830.82492,147.982199 C1807.23498,147.982199 1789.45317,153.52226 1777.47949,164.602384 C1765.50581,175.682508 1759.51897,194.983368 1759.51897,222.504965 L1759.51897,370.478228 L1684.46007,370.478228 L1684.46007,73.4594321 L1759.51897,73.4594321 L1759.51897,119.567043 C1769.1694,103.840416 1781.76857,91.5093108 1797.31648,82.5737273 C1812.8644,73.6381438 1830.64621,69.170352 1850.66191,69.170352 Z M1284.52574,0 L1284.52574,73.4504965 L1351.00647,73.4504965 L1351.00647,135.106023 L1284.52574,135.106023 L1284.52574,278.790206 C1284.52574,288.798059 1286.93834,296.035882 1291.76356,300.503674 C1296.58877,304.971465 1304.72015,307.205361 1316.1577,307.205361 L1351.00647,307.205361 L1351.00647,370.469293 L1303.8266,370.469293 C1240.56267,370.469293 1208.93071,339.730885 1208.93071,278.254071 L1208.93071,135.106023 L1173.5458,135.106023 L1173.5458,73.4504965 L1208.93071,73.4504965 L1208.93071,0 L1284.52574,0 Z M309.171157,207.640622 L309.171157,370.268242 L233.665484,370.268242 L233.665484,326.930662 C230.091251,332.292012 226.070239,337.206583 221.155669,341.674375 L221.155669,341.674375 L148.77745,300.123911 L309.171157,207.640622 Z M62.9958571,190.211766 L62.9958571,353.286166 C44.2311337,340.776349 29.0406434,323.79874 17.8711651,301.459781 C6.70168693,279.567602 0.893558257,254.547968 0,226.40088 L0,226.40088 L62.9958571,190.211766 Z M503.908776,134.560952 C490.32669,134.560952 477.548807,138.04583 465.575127,145.015585 C453.601446,151.98534 443.951017,162.082549 436.623839,175.307213 C429.296661,188.531877 425.633072,204.079792 425.633072,221.950959 C425.633072,239.822126 429.296661,255.414719 436.623839,268.594705 C443.951017,281.819369 453.601446,291.916578 465.575127,298.886333 C477.548807,305.856088 490.32669,309.340966 503.908776,309.340966 C517.848285,309.340966 530.804879,305.766732 542.77856,298.618266 C554.752241,291.469799 564.40267,281.283234 571.729848,268.05857 C579.057025,254.833906 582.720614,239.107279 582.720614,220.878689 C582.720614,203.007522 579.057025,187.548962 571.729848,174.503011 C564.40267,161.457059 554.752241,151.538561 542.77856,144.747517 C530.804879,137.956474 517.848285,134.560952 503.908776,134.560952 Z M309.162221,73.6068692 L309.162221,194.684026 L212.211151,250.531423 L212.211151,94.1587113 C220.699954,100.41362 227.84842,107.562087 233.656549,115.604112 L233.656549,115.604112 L233.656549,73.6068692 L309.162221,73.6068692 Z M51.8263789,97.7374125 L126.438493,140.628213 L0.446779129,213.453219 C0.893558257,186.199689 6.70168693,162.073614 17.8711651,141.074993 C26.8067477,123.650605 38.4230051,109.353671 51.8263789,97.7374125 L51.8263789,97.7374125 Z M820.228399,130.271872 C801.642387,130.271872 786.005118,135.90129 773.31659,147.160125 C760.628063,158.41896 752.854106,174.056231 749.99472,194.071938 L890.998213,194.071938 C890.64079,174.771078 883.671035,159.312519 870.08895,147.69626 C856.506864,136.080001 839.886681,130.271872 820.228399,130.271872 Z M1996.49062,130.271872 C1977.90461,130.271872 1962.26734,135.90129 1949.57881,147.160125 C1936.89028,158.41896 1929.11633,174.056231 1926.25694,194.071938 L2067.26043,194.071938 C2066.90301,174.771078 2059.93325,159.312519 2046.35117,147.69626 C2032.76908,136.080001 2016.1489,130.271872 1996.49062,130.271872 Z M135.81192,68.6967661 C157.704097,68.6967661 176.915599,73.1645578 193.893206,82.1001414 C196.127102,83.4404789 198.807777,84.7808164 201.041672,86.5679331 L201.041672,86.5679331 L201.041672,171.009197 L62.0933633,90.5889457 C63.4337007,89.2486082 65.2208172,88.3550498 66.5611546,87.4614915 C87.1129945,74.9516745 110.345509,68.6967661 135.81192,68.6967661 Z" id="Combined-Shape" fill="#FFFFFF"></path>
    </g>
</svg>